<svg width="25" height="20" viewBox="0 0 25 20" fill="none" xmlns="http://www.w3.org/2000/svg">
<path fill-rule="evenodd" clip-rule="evenodd" d="M10.8837 1.98299H21.3683C23.6101 1.98299 24.7411 3.09287 24.7411 5.31264V6.13149H0V3.25425C0 1.0777 1.08828 0 2.97379 0H6.18529C7.25195 0 7.80138 0.204598 8.51264 0.797241L9.17011 1.34713C9.70897 1.79954 10.1508 1.98299 10.8837 1.98299ZM21.6915 20H3.38345C1.14207 20 0 18.8901 0 16.6593V7.59724H24.7411V16.6593C24.7411 18.8795 23.6202 20 21.6915 20ZM9.6597 10.6539L9.6568 10.6568C8.552 11.7616 8 12.3136 8 13C8 13.6864 8.552 14.2384 9.65679 15.3432L9.6568 15.3432C10.7616 16.448 11.3136 17 12 17C12.6864 17 13.2384 16.448 14.3432 15.3432L14.3432 15.3432L14.3432 15.3432C15.448 14.2384 16 13.6864 16 13C16 12.3136 15.448 11.7616 14.3432 10.6568L14.3432 10.6568C13.2384 9.552 12.6864 9 12 9C11.3142 9 10.7626 9.55144 9.6597 10.6539ZM12.639 11.5189C12.6759 11.5328 12.7096 11.5539 12.7384 11.5808L13.8052 12.5812C13.8351 12.6093 13.859 12.6431 13.8752 12.6808C13.8915 12.7184 13.9 12.759 13.9 12.8C13.9 12.841 13.8915 12.8816 13.8752 12.9192C13.859 12.9569 13.8351 12.9907 13.8052 13.0188L12.7384 14.0188C12.6801 14.0719 12.6033 14.0999 12.5246 14.0967C12.4459 14.0936 12.3715 14.0597 12.3176 14.0022C12.2637 13.9447 12.2346 13.8683 12.2365 13.7896C12.2385 13.7108 12.2713 13.6359 12.328 13.5812L12.8412 13.1H11.4668C11.2899 13.1021 11.1171 13.1536 10.968 13.2488C10.8228 13.3468 10.7 13.506 10.7 13.8C10.7 13.8796 10.6684 13.9559 10.6121 14.0121C10.5559 14.0684 10.4796 14.1 10.4 14.1C10.3204 14.1 10.2441 14.0684 10.1879 14.0121C10.1316 13.9559 10.1 13.8796 10.1 13.8C10.1 13.294 10.3328 12.9532 10.632 12.7512C10.9156 12.56 11.2448 12.5 11.4668 12.5H12.8412L12.328 12.0188C12.2992 11.9919 12.2761 11.9595 12.2598 11.9236C12.2436 11.8877 12.2345 11.8489 12.2332 11.8096C12.232 11.7702 12.2385 11.7309 12.2523 11.694C12.2662 11.6571 12.2873 11.6234 12.3142 11.5946C12.3411 11.5658 12.3735 11.5427 12.4094 11.5264C12.4453 11.5102 12.4841 11.5011 12.5234 11.4998C12.5628 11.4986 12.6021 11.5051 12.639 11.5189Z" fill="white"/>
</svg>
