<svg width="20" height="20" viewBox="0 0 20 20" fill="none" xmlns="http://www.w3.org/2000/svg">
<rect x="0.75" y="0.75" width="18.5" height="18.5" rx="4.25" fill="white" stroke="#C0C0C0" stroke-width="0.5"/>
<path fill-rule="evenodd" clip-rule="evenodd" d="M6.94028 4.76871C8.96785 4.54422 11.014 4.54422 13.0416 4.76871C14.1642 4.89454 15.0699 5.7786 15.2016 6.90514C15.4418 8.96161 15.4418 11.0391 15.2016 13.0955C15.0699 14.2221 14.1642 15.1061 13.0416 15.232C11.014 15.4565 8.96785 15.4565 6.94028 15.232C5.81767 15.1061 4.91198 14.2221 4.78026 13.0955C4.54004 11.0393 4.54004 8.96205 4.78026 6.90579C4.84689 6.3585 5.09638 5.84973 5.48832 5.46197C5.88025 5.0742 6.39165 4.83015 6.93963 4.76937M9.99092 6.7282C10.1213 6.7282 10.2463 6.77998 10.3385 6.87216C10.4306 6.96433 10.4824 7.08935 10.4824 7.21971V9.50883H12.7716C12.9019 9.50883 13.0269 9.56062 13.1191 9.65279C13.2113 9.74497 13.2631 9.86998 13.2631 10.0003C13.2631 10.1307 13.2113 10.2557 13.1191 10.3479C13.0269 10.4401 12.9019 10.4919 12.7716 10.4919H10.4824V12.781C10.4824 12.9113 10.4306 13.0364 10.3385 13.1285C10.2463 13.2207 10.1213 13.2725 9.99092 13.2725C9.86056 13.2725 9.73555 13.2207 9.64337 13.1285C9.55119 13.0364 9.49941 12.9113 9.49941 12.781V10.4919H7.21028C7.07993 10.4919 6.95491 10.4401 6.86273 10.3479C6.77056 10.2557 6.71877 10.1307 6.71877 10.0003C6.71877 9.86998 6.77056 9.74497 6.86273 9.65279C6.95491 9.56062 7.07993 9.50883 7.21028 9.50883H9.49941V7.21971C9.49941 7.08935 9.55119 6.96433 9.64337 6.87216C9.73555 6.77998 9.86056 6.7282 9.99092 6.7282Z" fill="#023047"/>
</svg>
