<svg width="17" height="15" viewBox="0 0 17 15" fill="none" xmlns="http://www.w3.org/2000/svg">
<path d="M13.0909 0C13.9589 0 14.7913 0.332714 15.4051 0.924948C16.0188 1.51718 16.3636 2.32042 16.3636 3.15797V9.47391C16.3636 10.3115 16.0188 11.1147 15.4051 11.7069C14.7913 12.2992 13.9589 12.6319 13.0909 12.6319H9.22582L5.32964 14.8875C5.2123 14.9554 5.07918 14.9939 4.94245 14.9993C4.80572 15.0048 4.66976 14.9771 4.54701 14.9187C4.42426 14.8603 4.31864 14.7732 4.23981 14.6653C4.16099 14.5573 4.11148 14.432 4.09582 14.3009L4.09091 14.2109V12.6319H3.27273C2.43307 12.6319 1.62554 12.3205 1.01715 11.7621C0.408767 11.2037 0.0460736 10.441 0.004091 9.63181L0 9.47391V3.15797C0 2.32042 0.344804 1.51718 0.95856 0.924948C1.57232 0.332714 2.40475 0 3.27273 0H13.0909ZM9.81818 7.10543H4.90909C4.6921 7.10543 4.48399 7.18861 4.33055 7.33667C4.17711 7.48473 4.09091 7.68554 4.09091 7.89492C4.09091 8.10431 4.17711 8.30512 4.33055 8.45318C4.48399 8.60124 4.6921 8.68442 4.90909 8.68442H9.81818C10.0352 8.68442 10.2433 8.60124 10.3967 8.45318C10.5502 8.30512 10.6364 8.10431 10.6364 7.89492C10.6364 7.68554 10.5502 7.48473 10.3967 7.33667C10.2433 7.18861 10.0352 7.10543 9.81818 7.10543ZM11.4545 3.94746H4.90909C4.6921 3.94746 4.48399 4.03064 4.33055 4.1787C4.17711 4.32676 4.09091 4.52757 4.09091 4.73695C4.09091 4.94634 4.17711 5.14715 4.33055 5.29521C4.48399 5.44327 4.6921 5.52645 4.90909 5.52645H11.4545C11.6715 5.52645 11.8796 5.44327 12.0331 5.29521C12.1865 5.14715 12.2727 4.94634 12.2727 4.73695C12.2727 4.52757 12.1865 4.32676 12.0331 4.1787C11.8796 4.03064 11.6715 3.94746 11.4545 3.94746Z" fill="#023047"/>
</svg>
