<svg width="49" height="50" viewBox="0 0 49 50" fill="none" xmlns="http://www.w3.org/2000/svg">
<path fill-rule="evenodd" clip-rule="evenodd" d="M24.0936 34.9388C24.5728 34.9388 25.0325 34.7484 25.3714 34.4095C25.7103 34.0706 25.9007 33.611 25.9007 33.1317V6.69247L29.9486 11.4175C30.2604 11.7817 30.7042 12.0072 31.1823 12.0442C31.6604 12.0813 32.1336 11.9269 32.4978 11.615C32.8621 11.3032 33.0875 10.8594 33.1246 10.3813C33.1616 9.90327 33.0072 9.43006 32.6954 9.06581L25.467 0.632628C25.2973 0.434244 25.0867 0.274968 24.8496 0.165759C24.6125 0.0565499 24.3546 0 24.0936 0C23.8325 0 23.5746 0.0565499 23.3375 0.165759C23.1004 0.274968 22.8898 0.434244 22.7202 0.632628L15.4917 9.06581C15.3373 9.24617 15.2199 9.45517 15.1463 9.68089C15.0726 9.90661 15.0442 10.1446 15.0625 10.3813C15.0809 10.6181 15.1457 10.8489 15.2532 11.0605C15.3608 11.2722 15.5089 11.4606 15.6893 11.615C15.8696 11.7695 16.0787 11.8868 16.3044 11.9605C16.5301 12.0341 16.7681 12.0626 17.0048 12.0442C17.2415 12.0259 17.4723 11.9611 17.684 11.8535C17.8957 11.746 18.0841 11.5978 18.2385 11.4175L22.2864 6.69488V33.1317C22.2864 34.1292 23.096 34.9388 24.0936 34.9388Z" fill="#818181"/>
<path d="M33.7327 18.6768C32.0413 18.6768 31.1955 18.6768 30.586 19.084C30.3238 19.2593 30.0987 19.4845 29.9233 19.7466C29.5161 20.3562 29.5161 21.2019 29.5161 22.8933V33.1336C29.5161 34.5715 28.945 35.9504 27.9283 36.9671C26.9116 37.9838 25.5326 38.555 24.0948 38.555C22.657 38.555 21.278 37.9838 20.2613 36.9671C19.2447 35.9504 18.6735 34.5715 18.6735 33.1336V22.8933C18.6735 21.2019 18.6735 20.3562 18.2663 19.7466C18.0909 19.4845 17.8658 19.2593 17.6037 19.084C16.9941 18.6768 16.1483 18.6768 14.4569 18.6768C7.64287 18.6768 4.23346 18.6768 2.11793 20.7947C-1.43616e-07 22.9102 0 26.3148 0 33.1312V35.5407C0 42.3595 -1.43616e-07 45.7641 2.11793 47.8821C4.23346 50 7.64287 50 14.4569 50H33.7327C40.5467 50 43.9562 50 46.0717 47.8821C48.1872 45.7641 48.1896 42.3571 48.1896 35.5431V33.1336C48.1896 26.3172 48.1896 22.9102 46.0717 20.7947C43.9562 18.6768 40.5467 18.6768 33.7327 18.6768Z" fill="#818181"/>
</svg>
