<svg width="20" height="20" viewBox="0 0 20 20" fill="#ffffff" xmlns="http://www.w3.org/2000/svg">
    <path
        d="M5.24934 10.1347V5.717C5.24934 5.28389 5.40262 4.91593 5.70918 4.6131C6.01574 4.31027 6.3874 4.15851 6.82414 4.15782C7.26089 4.15713 7.63289 4.30889 7.94015 4.6131C8.24741 4.91731 8.40034 5.28528 8.39894 5.717V10.1347C8.39894 10.5678 8.24601 10.9361 7.94015 11.2396C7.63429 11.5431 7.26229 11.6946 6.82414 11.6939C6.386 11.6932 6.01434 11.5418 5.70918 11.2396C5.40402 10.9375 5.25074 10.5692 5.24934 10.1347ZM10.4987 9.9008V1.55918C10.4987 1.12608 10.652 0.758111 10.9585 0.455283C11.2651 0.152456 11.6367 0.000695332 12.0735 2.3624e-06C12.5102 -0.000690607 12.8822 0.15107 13.1895 0.455283C13.4968 0.759497 13.6497 1.12746 13.6483 1.55918V9.9008C13.6483 10.4205 13.4866 10.8103 13.1632 11.0702C12.8399 11.3301 12.4766 11.46 12.0735 11.46C11.6703 11.46 11.3074 11.3301 10.9848 11.0702C10.6621 10.8103 10.5001 10.4205 10.4987 9.9008ZM0 13.4869V9.87482C0 9.44171 0.153281 9.07374 0.459842 8.77092C0.766403 8.46809 1.13806 8.31633 1.5748 8.31563C2.01155 8.31494 2.38355 8.4667 2.69081 8.77092C2.99807 9.07513 3.151 9.4431 3.1496 9.87482V13.4869C3.1496 14.0066 2.98792 14.3964 2.66456 14.6563C2.34121 14.9162 1.97795 15.0461 1.5748 15.0461C1.17165 15.0461 0.808748 14.9162 0.486089 14.6563C0.16343 14.3964 0.00139982 14.0066 0 13.4869ZM2.51968 19.8016C2.06474 19.8016 1.74523 19.5896 1.56115 19.1655C1.37708 18.7414 1.45162 18.3644 1.78478 18.0345L6.08923 13.7728C6.28171 13.5822 6.51373 13.4783 6.7853 13.4609C7.05686 13.4436 7.29728 13.5302 7.50656 13.7208L10.4987 16.2675L16.3779 10.4465H15.748C15.4506 10.4465 15.2014 10.3467 15.0005 10.1472C14.7996 9.94758 14.6988 9.70088 14.6982 9.40706C14.6975 9.11324 14.7982 8.86655 15.0005 8.66697C15.2028 8.4674 15.452 8.36761 15.748 8.36761H18.8976C19.1951 8.36761 19.4446 8.4674 19.6462 8.66697C19.8478 8.86655 19.9482 9.11324 19.9475 9.40706V12.5254C19.9475 12.8199 19.8467 13.067 19.6451 13.2666C19.4436 13.4661 19.1944 13.5656 18.8976 13.5649C18.6009 13.5642 18.3517 13.4644 18.1501 13.2655C17.9485 13.0666 17.8478 12.8199 17.8478 12.5254V11.9018L11.2861 18.3983C11.0936 18.5889 10.8616 18.6929 10.59 18.7102C10.3185 18.7275 10.078 18.6409 9.86876 18.4503L6.87663 15.9036L3.25459 19.4898C3.1671 19.5764 3.05792 19.6502 2.92703 19.7112C2.79615 19.7722 2.66037 19.8023 2.51968 19.8016Z"
        fill="#ffffff" fill-opacity="1" />
</svg>
