<svg width="15" height="15" viewBox="0 0 15 15" fill="none" xmlns="http://www.w3.org/2000/svg">
<path fill-rule="evenodd" clip-rule="evenodd" d="M3.25025 0.233845C6.06632 -0.0779484 8.90819 -0.0779484 11.7242 0.233845C13.2834 0.408604 14.5413 1.63647 14.7243 3.20111C15.058 6.05732 15.058 8.94268 14.7243 11.7989C14.5413 13.3635 13.2834 14.5914 11.7242 14.7662C8.90819 15.0779 6.06632 15.0779 3.25025 14.7662C1.69108 14.5914 0.433174 13.3635 0.250223 11.7989C-0.0834077 8.94298 -0.0834077 6.05793 0.250223 3.20202C0.342761 2.44188 0.689286 1.73527 1.23364 1.1967C1.77799 0.658131 2.48826 0.319171 3.24934 0.234755M7.48725 2.95535C7.6683 2.95535 7.84194 3.02728 7.96996 3.1553C8.09798 3.28332 8.1699 3.45696 8.1699 3.63801V6.81735H11.3492C11.5303 6.81735 11.7039 6.88927 11.832 7.01729C11.96 7.14531 12.0319 7.31895 12.0319 7.5C12.0319 7.68105 11.96 7.85469 11.832 7.98271C11.7039 8.11073 11.5303 8.18265 11.3492 8.18265H8.1699V11.362C8.1699 11.543 8.09798 11.7167 7.96996 11.8447C7.84194 11.9727 7.6683 12.0446 7.48725 12.0446C7.3062 12.0446 7.13257 11.9727 7.00454 11.8447C6.87652 11.7167 6.8046 11.543 6.8046 11.362V8.18265H3.62526C3.44421 8.18265 3.27057 8.11073 3.14255 7.98271C3.01453 7.85469 2.94261 7.68105 2.94261 7.5C2.94261 7.31895 3.01453 7.14531 3.14255 7.01729C3.27057 6.88927 3.44421 6.81735 3.62526 6.81735H6.8046V3.63801C6.8046 3.45696 6.87652 3.28332 7.00454 3.1553C7.13257 3.02728 7.3062 2.95535 7.48725 2.95535Z" fill="#023047"/>
</svg>
