<svg width="20" height="20" viewBox="0 0 20 20" fill="none" xmlns="http://www.w3.org/2000/svg">
<path d="M1.11111 0H7.77778C8.38889 0 8.88889 0.49504 8.88889 1.10009V7.70063C8.88889 8.30568 8.38889 8.80072 7.77778 8.80072H1.11111C0.5 8.80072 0 8.30568 0 7.70063V1.10009C0 0.49504 0.5 0 1.11111 0ZM12.2222 0H18.8889C19.5 0 20 0.49504 20 1.10009V7.70063C20 8.30568 19.5 8.80072 18.8889 8.80072H12.2222C11.6111 8.80072 11.1111 8.30568 11.1111 7.70063V1.10009C11.1111 0.49504 11.6111 0 12.2222 0ZM1.11111 11.0009H7.77778C8.38889 11.0009 8.88889 11.4959 8.88889 12.101V18.7015C8.88889 19.3066 8.38889 19.8016 7.77778 19.8016H1.11111C0.5 19.8016 0 19.3066 0 18.7015V12.101C0 11.4959 0.5 11.0009 1.11111 11.0009ZM15.5556 11.0009C14.9444 11.0009 14.4444 11.4959 14.4444 12.101V14.3012H12.2222C11.6111 14.3012 11.1111 14.7962 11.1111 15.4013C11.1111 16.0063 11.6111 16.5013 12.2222 16.5013H14.4444V18.7015C14.4444 19.3066 14.9444 19.8016 15.5556 19.8016C16.1667 19.8016 16.6667 19.3066 16.6667 18.7015V16.5013H18.8889C19.5 16.5013 20 16.0063 20 15.4013C20 14.7962 19.5 14.3012 18.8889 14.3012H16.6667V12.101C16.6667 11.4959 16.1667 11.0009 15.5556 11.0009Z" fill="white"/>
</svg>
