<svg width="16" height="20" viewBox="0 0 16 20" fill="#ffffff" xmlns="http://www.w3.org/2000/svg">
<path d="M16 15.8413C16 18.0294 12.418 19.8016 8 19.8016C3.582 19.8016 0 18.0294 0 15.8413V11.8552C0.502 12.4661 1.215 12.973 2.008 13.3651C3.58 14.1433 5.7 14.6037 8 14.6037C10.3 14.6037 12.42 14.1433 13.992 13.3661C14.785 12.973 15.498 12.4651 16 11.8552V15.8413Z" fill="white" fill-opacity="1"/>
<path d="M8 8.66326C10.3 8.66326 12.42 8.20287 13.992 7.42566C14.785 7.0326 15.498 6.52468 16 5.91479V9.90086C16 10.3959 14.214 11.4761 13.321 12.0375C11.998 12.6919 10.118 13.1186 8 13.1186C5.882 13.1186 4.002 12.6929 2.679 12.0375C1.5 11.4533 0 10.3959 0 9.90086V5.91479C0.502 6.52567 1.215 7.0326 2.008 7.42467C3.58 8.20287 5.7 8.66326 8 8.66326Z" fill="white" fill-opacity="1"/>
<path d="M13.3212 6.09692C11.9982 6.75136 10.1182 7.17808 8.00018 7.17808C5.88218 7.17808 4.00218 6.75235 2.67918 6.09692C2.16418 5.89692 1.00618 5.26228 0.202182 4.23655C0.133772 4.15069 0.0840608 4.05174 0.0561797 3.94592C0.0282986 3.84011 0.0228516 3.72972 0.0401818 3.62171C0.0631818 3.47518 0.095182 3.3237 0.136182 3.22964C0.828182 1.39205 4.08618 0 8.00018 0C11.9142 0 15.1722 1.39205 15.8642 3.22964C15.9052 3.3237 15.9372 3.47518 15.9602 3.62171C15.9775 3.72972 15.9721 3.84011 15.9442 3.94592C15.9163 4.05174 15.8666 4.15069 15.7982 4.23655C14.9942 5.26228 13.8362 5.89692 13.3212 6.09692Z" fill="white" fill-opacity="1"/>
</svg>
