<svg width="44" height="54" viewBox="0 0 44 54" fill="none" xmlns="http://www.w3.org/2000/svg">
<mask id="mask0_94_206" style="mask-type:luminance" maskUnits="userSpaceOnUse" x="0" y="0" width="44" height="54">
<path d="M4.5 52H39.5C40.163 52 40.7989 51.7366 41.2678 51.2678C41.7366 50.7989 42 50.163 42 49.5V14.5H29.5V2H4.5C3.83696 2 3.20107 2.26339 2.73223 2.73223C2.26339 3.20107 2 3.83696 2 4.5V49.5C2 50.163 2.26339 50.7989 2.73223 51.2678C3.20107 51.7366 3.83696 52 4.5 52Z" fill="white" stroke="white" stroke-width="4" stroke-linecap="round" stroke-linejoin="round"/>
<path d="M29.5 2L42 14.5" stroke="white" stroke-width="4" stroke-linecap="round" stroke-linejoin="round"/>
<path d="M13.25 33.25L20.75 39.5L32 25.75" stroke="black" stroke-width="4" stroke-linecap="round" stroke-linejoin="round"/>
</mask>
<g mask="url(#mask0_94_206)">
<path d="M-8 -3H52V57H-8V-3Z" fill="#023047"/>
</g>
</svg>
