<svg width="27" height="27" viewBox="0 0 27 27" fill="none" xmlns="http://www.w3.org/2000/svg">
<rect x="0.75" y="0.75" width="25.5" height="25.5" rx="6.25" fill="white" stroke="#C0C0C0" stroke-width="0.5"/>
<path d="M15.6283 11.8333C16.4333 11.8333 17.0867 12.4867 17.0867 13.2917V17.2492C17.0867 18.2439 16.6915 19.198 15.9881 19.9014C15.2847 20.6048 14.3306 21 13.3358 21C12.3411 21 11.387 20.6048 10.6836 19.9014C9.98018 19.198 9.585 18.2439 9.585 17.2492V13.2917C9.585 12.4867 10.2375 11.8333 11.0433 11.8333H15.6283ZM9.27583 11.8333C8.97472 12.194 8.79405 12.6398 8.75917 13.1083L8.75083 13.2917V17.2492C8.75083 17.955 8.91083 18.6233 9.19583 19.22C8.92028 19.295 8.63278 19.3328 8.33333 19.3333C7.89552 19.3333 7.462 19.2471 7.05753 19.0795C6.65306 18.912 6.28556 18.6663 5.97602 18.3567C5.66648 18.0471 5.42096 17.6795 5.2535 17.275C5.08603 16.8705 4.99989 16.437 5 15.9992V13.2917C5.00001 12.9257 5.13764 12.5731 5.38557 12.3038C5.63349 12.0346 5.97358 11.8684 6.33833 11.8383L6.45833 11.8333H9.27583ZM17.3958 11.8333H20.2083C21.0133 11.8333 21.6667 12.4867 21.6667 13.2917V16C21.6668 16.511 21.5494 17.0151 21.3237 17.4735C21.0979 17.9319 20.7698 18.3323 20.3646 18.6436C19.9595 18.955 19.4882 19.1691 18.9872 19.2693C18.4861 19.3695 17.9687 19.3532 17.475 19.2217C17.725 18.6983 17.8783 18.1217 17.9125 17.5117L17.92 17.2492V13.2917C17.92 12.7375 17.7242 12.2292 17.3958 11.8333ZM13.3333 6C13.9964 6 14.6323 6.26339 15.1011 6.73223C15.5699 7.20107 15.8333 7.83696 15.8333 8.5C15.8333 9.16304 15.5699 9.79893 15.1011 10.2678C14.6323 10.7366 13.9964 11 13.3333 11C12.6703 11 12.0344 10.7366 11.5656 10.2678C11.0967 9.79893 10.8333 9.16304 10.8333 8.5C10.8333 7.83696 11.0967 7.20107 11.5656 6.73223C12.0344 6.26339 12.6703 6 13.3333 6ZM18.75 6.83333C19.3025 6.83333 19.8324 7.05283 20.2231 7.44353C20.6138 7.83423 20.8333 8.36413 20.8333 8.91667C20.8333 9.4692 20.6138 9.9991 20.2231 10.3898C19.8324 10.7805 19.3025 11 18.75 11C18.1975 11 17.6676 10.7805 17.2769 10.3898C16.8862 9.9991 16.6667 9.4692 16.6667 8.91667C16.6667 8.36413 16.8862 7.83423 17.2769 7.44353C17.6676 7.05283 18.1975 6.83333 18.75 6.83333ZM7.91667 6.83333C8.4692 6.83333 8.99911 7.05283 9.38981 7.44353C9.78051 7.83423 10 8.36413 10 8.91667C10 9.4692 9.78051 9.9991 9.38981 10.3898C8.99911 10.7805 8.4692 11 7.91667 11C7.36413 11 6.83423 10.7805 6.44353 10.3898C6.05283 9.9991 5.83333 9.4692 5.83333 8.91667C5.83333 8.36413 6.05283 7.83423 6.44353 7.44353C6.83423 7.05283 7.36413 6.83333 7.91667 6.83333Z" fill="#023047"/>
</svg>
