<svg width="22" height="25" viewBox="0 0 22 25" fill="none" xmlns="http://www.w3.org/2000/svg">
<path fill-rule="evenodd" clip-rule="evenodd" d="M11.036 2.02078e-08C10.7095 -4.34173e-05 10.3867 0.0699416 10.0896 0.205212C9.79254 0.340483 9.52808 0.537878 9.31417 0.78402C9.10026 1.03016 8.94189 1.3193 8.8498 1.63183C8.75771 1.94437 8.73405 2.273 8.78042 2.59545C7.129 3.08124 5.67955 4.08713 4.64875 5.46275C3.61794 6.83837 3.06115 8.50983 3.06161 10.2273V19.3182H1.92241C1.62027 19.3182 1.33051 19.4379 1.11687 19.651C0.903226 19.8641 0.783203 20.1532 0.783203 20.4545C0.783203 20.7559 0.903226 21.045 1.11687 21.2581C1.33051 21.4712 1.62027 21.5909 1.92241 21.5909H20.1497C20.4518 21.5909 20.7416 21.4712 20.9552 21.2581C21.1689 21.045 21.2889 20.7559 21.2889 20.4545C21.2889 20.1532 21.1689 19.8641 20.9552 19.651C20.7416 19.4379 20.4518 19.3182 20.1497 19.3182H19.0105V10.2273C19.0109 8.50983 18.4541 6.83837 17.4233 5.46275C16.3925 4.08713 14.9431 3.08124 13.2917 2.59545C13.3069 2.48939 13.3145 2.38182 13.3145 2.27273C13.3145 1.66996 13.0744 1.09189 12.6471 0.665666C12.2198 0.239447 11.6403 2.02078e-08 11.036 2.02078e-08ZM13.3145 23.8636C13.3145 24.165 13.1944 24.4541 12.9808 24.6672C12.7671 24.8803 12.4774 25 12.1752 25H9.89684C9.5947 25 9.30494 24.8803 9.0913 24.6672C8.87766 24.4541 8.75764 24.165 8.75764 23.8636C8.75764 23.5623 8.87766 23.2732 9.0913 23.0601C9.30494 22.847 9.5947 22.7273 9.89684 22.7273H12.1752C12.4774 22.7273 12.7671 22.847 12.9808 23.0601C13.1944 23.2732 13.3145 23.5623 13.3145 23.8636Z" fill="white"/>
</svg>
