<svg width="32" height="32" viewBox="0 0 32 32" fill="none" xmlns="http://www.w3.org/2000/svg">
<rect x="0.75" y="0.75" width="30.5" height="30.5" rx="8.25" fill="white" stroke="#C0C0C0" stroke-width="0.5"/>
<path fill-rule="evenodd" clip-rule="evenodd" d="M16.1364 8.38501C15.9409 8.38498 15.7477 8.42656 15.5699 8.50692C15.3921 8.58727 15.2338 8.70454 15.1058 8.85076C14.9778 8.99698 14.883 9.16874 14.8279 9.3544C14.7728 9.54006 14.7586 9.73528 14.7864 9.92684C13.798 10.2154 12.9305 10.813 12.3135 11.6301C11.6966 12.4473 11.3634 13.4403 11.3636 14.4605V19.8609H10.6818C10.501 19.8609 10.3276 19.9321 10.1997 20.0587C10.0718 20.1853 10 20.357 10 20.536C10 20.715 10.0718 20.8867 10.1997 21.0133C10.3276 21.1399 10.501 21.2111 10.6818 21.2111H21.5909C21.7717 21.2111 21.9452 21.1399 22.073 21.0133C22.2009 20.8867 22.2727 20.715 22.2727 20.536C22.2727 20.357 22.2009 20.1853 22.073 20.0587C21.9452 19.9321 21.7717 19.8609 21.5909 19.8609H20.9091V14.4605C20.9094 13.4403 20.5761 12.4473 19.9592 11.6301C19.3422 10.813 18.4747 10.2154 17.4864 9.92684C17.4955 9.86383 17.5 9.79992 17.5 9.73512C17.5 9.37705 17.3563 9.03364 17.1006 8.78045C16.8449 8.52725 16.498 8.38501 16.1364 8.38501ZM17.5 22.5612C17.5 22.7402 17.4282 22.9119 17.3003 23.0385C17.1724 23.1651 16.999 23.2362 16.8182 23.2362H15.4545C15.2737 23.2362 15.1003 23.1651 14.9724 23.0385C14.8446 22.9119 14.7727 22.7402 14.7727 22.5612C14.7727 22.3821 14.8446 22.2104 14.9724 22.0838C15.1003 21.9572 15.2737 21.8861 15.4545 21.8861H16.8182C16.999 21.8861 17.1724 21.9572 17.3003 22.0838C17.4282 22.2104 17.5 22.3821 17.5 22.5612Z" fill="#023047"/>
</svg>
