<svg width="32" height="32" viewBox="0 0 32 32" fill="none" xmlns="http://www.w3.org/2000/svg">
<rect x="0.75" y="0.75" width="30.5" height="30.5" rx="8.25" fill="white" stroke="#858484" stroke-width="0.5"/>
<path fill-rule="evenodd" clip-rule="evenodd" d="M16.1364 8.53857C15.9409 8.53855 15.7477 8.58023 15.5699 8.66079C15.3921 8.74134 15.2338 8.8589 15.1058 9.00548C14.9778 9.15207 14.883 9.32426 14.8279 9.51039C14.7728 9.69651 14.7586 9.89222 14.7864 10.0843C13.798 10.3736 12.9305 10.9726 12.3135 11.7918C11.6966 12.6111 11.3634 13.6065 11.3636 14.6293V20.0432H10.6818C10.501 20.0432 10.3276 20.1145 10.1997 20.2414C10.0718 20.3683 10 20.5405 10 20.7199C10 20.8994 10.0718 21.0716 10.1997 21.1985C10.3276 21.3254 10.501 21.3967 10.6818 21.3967H21.5909C21.7717 21.3967 21.9452 21.3254 22.073 21.1985C22.2009 21.0716 22.2727 20.8994 22.2727 20.7199C22.2727 20.5405 22.2009 20.3683 22.073 20.2414C21.9452 20.1145 21.7717 20.0432 21.5909 20.0432H20.9091V14.6293C20.9094 13.6065 20.5761 12.6111 19.9592 11.7918C19.3422 10.9726 18.4747 10.3736 17.4864 10.0843C17.4955 10.0211 17.5 9.95703 17.5 9.89206C17.5 9.53309 17.3563 9.18883 17.1006 8.935C16.8449 8.68117 16.498 8.53857 16.1364 8.53857ZM17.5 22.7502C17.5 22.9297 17.4282 23.1018 17.3003 23.2287C17.1724 23.3556 16.999 23.4269 16.8182 23.4269H15.4545C15.2737 23.4269 15.1003 23.3556 14.9724 23.2287C14.8446 23.1018 14.7727 22.9297 14.7727 22.7502C14.7727 22.5707 14.8446 22.3986 14.9724 22.2716C15.1003 22.1447 15.2737 22.0734 15.4545 22.0734H16.8182C16.999 22.0734 17.1724 22.1447 17.3003 22.2716C17.4282 22.3986 17.5 22.5707 17.5 22.7502Z" fill="#023047"/>
</svg>
