<svg width="16" height="14" viewBox="0 0 16 14" fill="none" xmlns="http://www.w3.org/2000/svg">
<path d="M0 12.5C0 12.8978 0.158035 13.2794 0.43934 13.5607C0.720644 13.842 1.10218 14 1.5 14H14.5C14.8978 14 15.2794 13.842 15.5607 13.5607C15.842 13.2794 16 12.8978 16 12.5V5.5C16 5.10218 15.842 4.72064 15.5607 4.43934C15.2794 4.15804 14.8978 4 14.5 4H1.5C1.10218 4 0.720644 4.15804 0.43934 4.43934C0.158035 4.72064 0 5.10218 0 5.5L0 12.5ZM2 2.5C2 2.63261 2.05268 2.75979 2.14645 2.85355C2.24021 2.94732 2.36739 3 2.5 3H13.5C13.6326 3 13.7598 2.94732 13.8536 2.85355C13.9473 2.75979 14 2.63261 14 2.5C14 2.36739 13.9473 2.24021 13.8536 2.14645C13.7598 2.05268 13.6326 2 13.5 2H2.5C2.36739 2 2.24021 2.05268 2.14645 2.14645C2.05268 2.24021 2 2.36739 2 2.5ZM4 0.5C4 0.632608 4.05268 0.759785 4.14645 0.853553C4.24021 0.947322 4.36739 1 4.5 1H11.5C11.6326 1 11.7598 0.947322 11.8536 0.853553C11.9473 0.759785 12 0.632608 12 0.5C12 0.367392 11.9473 0.240215 11.8536 0.146447C11.7598 0.0526784 11.6326 0 11.5 0H4.5C4.36739 0 4.24021 0.0526784 4.14645 0.146447C4.05268 0.240215 4 0.367392 4 0.5Z" fill="#023047"/>
</svg>
