<svg width="20" height="20" viewBox="0 0 20 20" fill="none" xmlns="http://www.w3.org/2000/svg">
<path d="M0 2.4752C0 1.81874 0.263392 1.18916 0.732233 0.72497C1.20107 0.260779 1.83696 0 2.5 0H12.9545C13.2829 0 13.6079 0.064023 13.9113 0.188413C14.2146 0.312804 14.4902 0.495126 14.7223 0.72497C14.9545 0.954813 15.1386 1.22768 15.2642 1.52798C15.3899 1.82829 15.4545 2.15015 15.4545 2.4752V12.601H20V16.4263C20 17.3215 19.6408 18.18 19.0015 18.813C18.3622 19.446 17.4951 19.8016 16.5909 19.8016H3.40909C2.50494 19.8016 1.63783 19.446 0.9985 18.813C0.359171 18.18 0 17.3215 0 16.4263V2.4752ZM15.4545 18.4515H16.5909C17.1334 18.4515 17.6537 18.2381 18.0373 17.8583C18.4209 17.4786 18.6364 16.9634 18.6364 16.4263V13.9511H15.4545V18.4515ZM3.63636 5.17542C3.63636 5.54805 3.94182 5.85048 4.31818 5.85048H11.1364C11.3172 5.85048 11.4906 5.77935 11.6185 5.65276C11.7463 5.52616 11.8182 5.35446 11.8182 5.17542C11.8182 4.99639 11.7463 4.82468 11.6185 4.69809C11.4906 4.57149 11.3172 4.50037 11.1364 4.50037H4.31818C4.13735 4.50037 3.96393 4.57149 3.83606 4.69809C3.7082 4.82468 3.63636 4.99639 3.63636 5.17542ZM4.31818 9.00073C4.13735 9.00073 3.96393 9.07185 3.83606 9.19845C3.7082 9.32505 3.63636 9.49675 3.63636 9.67579C3.63636 9.85482 3.7082 10.0265 3.83606 10.1531C3.96393 10.2797 4.13735 10.3508 4.31818 10.3508H11.1364C11.3172 10.3508 11.4906 10.2797 11.6185 10.1531C11.7463 10.0265 11.8182 9.85482 11.8182 9.67579C11.8182 9.49675 11.7463 9.32505 11.6185 9.19845C11.4906 9.07185 11.3172 9.00073 11.1364 9.00073H4.31818ZM3.63636 14.1762C3.63636 14.5488 3.94182 14.8512 4.31818 14.8512H7.5C7.68083 14.8512 7.85425 14.7801 7.98212 14.6535C8.10998 14.5269 8.18182 14.3552 8.18182 14.1762C8.18182 13.9971 8.10998 13.8254 7.98212 13.6988C7.85425 13.5722 7.68083 13.5011 7.5 13.5011H4.31818C4.13735 13.5011 3.96393 13.5722 3.83606 13.6988C3.7082 13.8254 3.63636 13.9971 3.63636 14.1762Z" fill="white"/>
</svg>
