<svg width="18" height="20" viewBox="0 0 18 20" fill="none" xmlns="http://www.w3.org/2000/svg">
<path d="M3.73969 1.20395C3.86509 0.8517 4.0974 0.546748 4.4046 0.33112C4.71181 0.115492 5.0788 -0.000195618 5.45498 2.48298e-07H9.09163C9.46782 -0.000195618 9.8348 0.115492 10.142 0.33112C10.4492 0.546748 10.6815 0.8517 10.8069 1.20395H12.7283C13.2105 1.20395 13.673 1.39422 14.014 1.73289C14.355 2.07157 14.5466 2.53091 14.5466 3.00987V8.67686C13.1788 8.29119 11.7226 8.34992 10.3908 8.84449C9.05898 9.33905 7.92123 10.2435 7.1437 11.4259C6.36617 12.6082 5.98959 14.0065 6.06896 15.4165C6.14832 16.8264 6.67947 18.1743 7.58485 19.2632H1.81833C1.33608 19.2632 0.873578 19.0729 0.532575 18.7342C0.191573 18.3956 0 17.9362 0 17.4573V3.00987C0 2.53091 0.191573 2.07157 0.532575 1.73289C0.873578 1.39422 1.33608 1.20395 1.81833 1.20395H3.73969ZM5.45498 1.20395C5.29423 1.20395 5.14006 1.26737 5.0264 1.38026C4.91273 1.49316 4.84887 1.64627 4.84887 1.80592C4.84887 1.96558 4.91273 2.11869 5.0264 2.23158C5.14006 2.34448 5.29423 2.4079 5.45498 2.4079H9.09163C9.25238 2.4079 9.40655 2.34448 9.52022 2.23158C9.63389 2.11869 9.69774 1.96558 9.69774 1.80592C9.69774 1.64627 9.63389 1.49316 9.52022 1.38026C9.40655 1.26737 9.25238 1.20395 9.09163 1.20395H5.45498ZM9.77654 11.3677C9.86384 11.6767 9.88807 11.9998 9.84782 12.3182C9.80757 12.6367 9.70364 12.9439 9.54214 13.2218C9.38065 13.4997 9.16484 13.7428 8.9074 13.9368C8.64997 14.1307 8.3561 14.2715 8.04307 14.3511L7.48423 14.4931C7.44376 14.9001 7.44782 15.3102 7.49636 15.7163L7.92063 15.8163C8.24192 15.8919 8.54426 16.0319 8.80913 16.2277C9.074 16.4235 9.29581 16.671 9.46095 16.9549C9.6261 17.2389 9.73111 17.5534 9.76953 17.8791C9.80796 18.2048 9.77899 18.5348 9.68441 18.849L9.53167 19.3583C9.84442 19.6039 10.1818 19.8114 10.5439 19.9807L10.9378 19.5666C11.1646 19.3282 11.4381 19.1384 11.7413 19.0088C12.0446 18.8791 12.3714 18.8124 12.7015 18.8126C13.0317 18.8128 13.3584 18.88 13.6615 19.0101C13.9646 19.1402 14.2377 19.3303 14.4642 19.569L14.8727 20C15.2283 19.8371 15.5604 19.6372 15.8691 19.4004L15.68 18.731C15.5927 18.4221 15.5685 18.0989 15.6088 17.7805C15.649 17.4621 15.7529 17.1549 15.9144 16.8769C16.0759 16.599 16.2917 16.3559 16.5492 16.162C16.8066 15.968 17.1005 15.8272 17.4135 15.7477L17.9723 15.6056C18.0129 15.1982 18.0088 14.7877 17.9602 14.3812L17.5372 14.2824C17.2156 14.207 16.913 14.067 16.6479 13.8712C16.3828 13.6754 16.1608 13.4278 15.9955 13.1437C15.8302 12.8596 15.7252 12.5449 15.6867 12.219C15.6483 11.8931 15.6774 11.5628 15.7722 11.2485L15.9249 10.7416C15.6127 10.4956 15.273 10.2859 14.9127 10.1168L14.5199 10.5309C14.2932 10.7695 14.0198 10.9596 13.7164 11.0895C13.4131 11.2193 13.0862 11.2863 12.7559 11.2862C12.4256 11.286 12.0988 11.2189 11.7955 11.0888C11.4922 10.9587 11.2189 10.7685 10.9924 10.5297L10.5839 10.0987C10.2303 10.2606 9.89604 10.4613 9.58743 10.6971L9.77654 11.3677ZM12.7283 16.2533C12.4068 16.2533 12.0985 16.1265 11.8711 15.9007C11.6438 15.6749 11.5161 15.3687 11.5161 15.0494C11.5161 14.7301 11.6438 14.4238 11.8711 14.198C12.0985 13.9723 12.4068 13.8454 12.7283 13.8454C13.0498 13.8454 13.3581 13.9723 13.5855 14.198C13.8128 14.4238 13.9405 14.7301 13.9405 15.0494C13.9405 15.3687 13.8128 15.6749 13.5855 15.9007C13.3581 16.1265 13.0498 16.2533 12.7283 16.2533Z" fill="white"/>
</svg>
