<svg width="27" height="27" viewBox="0 0 27 27" fill="none" xmlns="http://www.w3.org/2000/svg">
<rect x="0.75" y="0.75" width="25.5" height="25.5" rx="6.25" fill="white" stroke="#C0C0C0" stroke-width="0.5"/>
<path fill-rule="evenodd" clip-rule="evenodd" d="M11.25 4.91272C10.6533 4.91272 10.081 5.14918 9.65901 5.57009C9.23705 5.99099 9 6.56186 9 7.15711V17.6309C9 18.2262 9.23705 18.797 9.65901 19.2179C10.081 19.6389 10.6533 19.8753 11.25 19.8753H15.75C16.3467 19.8753 16.919 19.6389 17.341 19.2179C17.7629 18.797 18 18.2262 18 17.6309V7.15711C18 6.56186 17.7629 5.99099 17.341 5.57009C16.919 5.14918 16.3467 4.91272 15.75 4.91272H11.25ZM12.2197 9.6207C12.3604 9.48045 12.5511 9.40166 12.75 9.40166C12.9489 9.40166 13.1396 9.48045 13.2802 9.6207L15.5302 11.8651C15.6709 12.0054 15.7498 12.1956 15.7498 12.394C15.7498 12.5924 15.6709 12.7826 15.5302 12.9229L13.2802 15.1673C13.1388 15.3036 12.9493 15.379 12.7527 15.3773C12.5561 15.3756 12.3679 15.2969 12.2289 15.1582C12.0898 15.0195 12.011 14.8319 12.0092 14.6357C12.0075 14.4396 12.0831 14.2506 12.2197 14.1095L13.1895 13.1421H6.75C6.55109 13.1421 6.36032 13.0633 6.21967 12.923C6.07902 12.7827 6 12.5924 6 12.394C6 12.1956 6.07902 12.0053 6.21967 11.865C6.36032 11.7247 6.55109 11.6459 6.75 11.6459H13.1895L12.2197 10.6786C12.0791 10.5383 12.0002 10.348 12.0002 10.1496C12.0002 9.95125 12.0791 9.76099 12.2197 9.6207Z" fill="#023047"/>
</svg>
