<svg width="25" height="25" viewBox="0 0 37 37" fill="none" xmlns="http://www.w3.org/2000/svg">
<rect x="0.673228" y="0.594493" width="35.6535" height="35.6535" rx="8.32677" fill="white" stroke="#C0C0C0" stroke-width="0.653543"/>
<path d="M21.5882 15.8547C22.7689 15.8547 23.7271 16.813 23.7271 17.9936V23.798C23.7271 25.257 23.1475 26.6562 22.1158 27.6879C21.0842 28.7196 19.6849 29.2992 18.2259 29.2992C16.7669 29.2992 15.3676 28.7196 14.3359 27.6879C13.3043 26.6562 12.7247 25.257 12.7247 23.798V17.9936C12.7247 16.813 13.6817 15.8547 14.8636 15.8547H21.5882ZM12.2712 15.8547C11.8296 16.3837 11.5646 17.0376 11.5134 17.7247L11.5012 17.9936V23.798C11.5012 24.8332 11.7359 25.8134 12.1539 26.6885C11.7497 26.7985 11.3281 26.8539 10.8889 26.8547C10.2468 26.8547 9.61094 26.7283 9.01771 26.4825C8.42448 26.2367 7.88548 25.8765 7.43149 25.4224C6.9775 24.9683 6.61741 24.4292 6.37179 23.8359C6.12618 23.2426 5.99984 22.6068 6 21.9646V17.9936C6.00002 17.4569 6.20188 16.9397 6.5655 16.5448C6.92912 16.15 7.42792 15.9063 7.96289 15.8621L8.13889 15.8547H12.2712ZM24.1806 15.8547H28.3056C29.4862 15.8547 30.4444 16.813 30.4444 17.9936V21.9659C30.4446 22.7153 30.2725 23.4547 29.9414 24.127C29.6102 24.7993 29.129 25.3865 28.5348 25.8432C27.9406 26.2999 27.2494 26.6139 26.5145 26.7609C25.7796 26.9079 25.0208 26.8839 24.2967 26.691C24.6633 25.9234 24.8882 25.0776 24.9383 24.183L24.9493 23.798V17.9936C24.9493 17.1809 24.6621 16.4353 24.1806 15.8547ZM18.2222 7.29919C19.1947 7.29919 20.1273 7.6855 20.8149 8.37314C21.5026 9.06077 21.8889 9.9934 21.8889 10.9659C21.8889 11.9383 21.5026 12.871 20.8149 13.5586C20.1273 14.2462 19.1947 14.6325 18.2222 14.6325C17.2498 14.6325 16.3171 14.2462 15.6295 13.5586C14.9419 12.871 14.5556 11.9383 14.5556 10.9659C14.5556 9.9934 14.9419 9.06077 15.6295 8.37314C16.3171 7.6855 17.2498 7.29919 18.2222 7.29919ZM26.1667 8.52142C26.9771 8.52142 27.7542 8.84334 28.3273 9.41637C28.9003 9.9894 29.2222 10.7666 29.2222 11.577C29.2222 12.3874 28.9003 13.1645 28.3273 13.7376C27.7542 14.3106 26.9771 14.6325 26.1667 14.6325C25.3563 14.6325 24.5791 14.3106 24.0061 13.7376C23.433 13.1645 23.1111 12.3874 23.1111 11.577C23.1111 10.7666 23.433 9.9894 24.0061 9.41637C24.5791 8.84334 25.3563 8.52142 26.1667 8.52142ZM10.2778 8.52142C11.0882 8.52142 11.8654 8.84334 12.4384 9.41637C13.0114 9.9894 13.3333 10.7666 13.3333 11.577C13.3333 12.3874 13.0114 13.1645 12.4384 13.7376C11.8654 14.3106 11.0882 14.6325 10.2778 14.6325C9.46739 14.6325 8.6902 14.3106 8.11717 13.7376C7.54415 13.1645 7.22222 12.3874 7.22222 11.577C7.22222 10.7666 7.54415 9.9894 8.11717 9.41637C8.6902 8.84334 9.46739 8.52142 10.2778 8.52142Z" fill="#023047"/>
</svg>
