<svg width="17" height="15" viewBox="0 0 17 15" fill="none" xmlns="http://www.w3.org/2000/svg">
<path d="M10.6283 5.83333C11.4333 5.83333 12.0867 6.48667 12.0867 7.29167V11.2492C12.0867 12.2439 11.6915 13.198 10.9881 13.9014C10.2847 14.6048 9.33062 15 8.33583 15C7.34105 15 6.38701 14.6048 5.68359 13.9014C4.98018 13.198 4.585 12.2439 4.585 11.2492V7.29167C4.585 6.48667 5.2375 5.83333 6.04333 5.83333H10.6283ZM4.27583 5.83333C3.97472 6.19397 3.79405 6.63981 3.75917 7.10833L3.75083 7.29167V11.2492C3.75083 11.955 3.91083 12.6233 4.19583 13.22C3.92028 13.295 3.63278 13.3328 3.33333 13.3333C2.89552 13.3333 2.462 13.2471 2.05753 13.0795C1.65306 12.912 1.28556 12.6663 0.976016 12.3567C0.666477 12.0471 0.420963 11.6795 0.253496 11.275C0.0860292 10.8705 -0.000109348 10.437 1.04176e-07 9.99917V7.29167C1.37747e-05 6.92567 0.137643 6.57307 0.385567 6.30384C0.633491 6.03461 0.973583 5.86845 1.33833 5.83833L1.45833 5.83333H4.27583ZM12.3958 5.83333H15.2083C16.0133 5.83333 16.6667 6.48667 16.6667 7.29167V10C16.6668 10.511 16.5494 11.0151 16.3237 11.4735C16.0979 11.9319 15.7698 12.3323 15.3646 12.6436C14.9595 12.955 14.4882 13.1691 13.9872 13.2693C13.4861 13.3695 12.9687 13.3532 12.475 13.2217C12.725 12.6983 12.8783 12.1217 12.9125 11.5117L12.92 11.2492V7.29167C12.92 6.7375 12.7242 6.22917 12.3958 5.83333ZM8.33333 0C8.99638 0 9.63226 0.263392 10.1011 0.732233C10.5699 1.20107 10.8333 1.83696 10.8333 2.5C10.8333 3.16304 10.5699 3.79893 10.1011 4.26777C9.63226 4.73661 8.99638 5 8.33333 5C7.67029 5 7.03441 4.73661 6.56557 4.26777C6.09673 3.79893 5.83333 3.16304 5.83333 2.5C5.83333 1.83696 6.09673 1.20107 6.56557 0.732233C7.03441 0.263392 7.67029 0 8.33333 0ZM13.75 0.833333C14.3025 0.833333 14.8324 1.05283 15.2231 1.44353C15.6138 1.83423 15.8333 2.36413 15.8333 2.91667C15.8333 3.4692 15.6138 3.9991 15.2231 4.38981C14.8324 4.78051 14.3025 5 13.75 5C13.1975 5 12.6676 4.78051 12.2769 4.38981C11.8862 3.9991 11.6667 3.4692 11.6667 2.91667C11.6667 2.36413 11.8862 1.83423 12.2769 1.44353C12.6676 1.05283 13.1975 0.833333 13.75 0.833333ZM2.91667 0.833333C3.4692 0.833333 3.99911 1.05283 4.38981 1.44353C4.78051 1.83423 5 2.36413 5 2.91667C5 3.4692 4.78051 3.9991 4.38981 4.38981C3.99911 4.78051 3.4692 5 2.91667 5C2.36413 5 1.83423 4.78051 1.44353 4.38981C1.05283 3.9991 0.833333 3.4692 0.833333 2.91667C0.833333 2.36413 1.05283 1.83423 1.44353 1.44353C1.83423 1.05283 2.36413 0.833333 2.91667 0.833333Z" fill="#023047"/>
</svg>
